<?xml version="1.0" encoding="UTF-8" standalone="no"?>
<!-- Generator: OCAD Version 10.4.10 -->
<!DOCTYPE svg PUBLIC "-//W3C//DTD SVG 20010904//EN" "http://www.w3.org/TR/2001/REC-SVG-20010904/DTD/svg10.dtd">
<svg id="mainMap" width="5.6560cm" height="4.8460cm" viewBox="0 0 56.5600 48.4600" style="fill:none;stroke-width:0;fill-rule:evenodd" xmlns:xlink="http://www.w3.org/1999/xlink" xmlns="http://www.w3.org/2000/svg">
<desc>Map</desc>
<g id="scaleTransform" transform="scale(1.00000000)">
<g id="mainMapContent">
<!-- map fill color -->
<rect id="mapBg" x="-100%" y="-100%" width="200%" height="200%" fill="white"/>
<g>
<clipPath id="Clip" fill="none" stroke="none">
<rect x="0" y="0" width="56.5600" height="48.4600" fill="none"/>
</clipPath>
<g clip-path="url(#Clip)">
<g opacity="1.00">
</g>
<g opacity="1.00">
</g>
<g opacity="1.00">
</g>
<g opacity="1.00">
</g>
<g opacity="1.00">
</g>
<g opacity="1.00">
</g>
<g opacity="1.00">
</g>
<g opacity="1.00">
</g>
<g opacity="1.00">
</g>
<g opacity="1.00">
</g>
<g opacity="1.00">
</g>
<g opacity="1.00">
</g>
<g opacity="1.00">
</g>
<g opacity="1.00">
</g>
<g opacity="1.00">
</g>
<g opacity="1.00">
</g>
<g opacity="1.00">
</g>
<g opacity="1.00">
</g>
<g opacity="1.00">
</g>
<g opacity="1.00">
</g>
<g opacity="1.00">
</g>
<g opacity="1.00">
</g>
<g opacity="1.00">
</g>
<g opacity="1.00">
</g>
<g opacity="1.00">
<g id="101.0 H\366jdkurva 4">
<g stroke="rgb(209,92,0)">
<g stroke-width="0.21" style="stroke-linejoin:round;stroke-linecap:round">
<path d="M40.27,46.70 C23.30,42.49 4.99,41.75 3.29,24.35 C2.81,20.62 1.44,18.43 2.88,14.95 C4.11,11.95 0.60,9.90 1.85,6.90 C4.30,1.00 8.23,0.60 14.63,0.79 C27.72,1.19 35.18,8.14 41.99,19.32 C44.62,23.65 45.47,27.07 50.16,28.99 C53.70,30.45 51.44,34.13 48.82,36.92 C45.08,40.90 45.50,47.86 40.27,46.70 C23.30,42.49 4.99,41.75 3.29,24.35 "/>
</g>
<g stroke-width="0.21" style="stroke-linejoin:round;stroke-linecap:round">
<path d="M18.43,33.95 C22.16,35.88 26.32,36.72 31.64,37.16 C37.23,37.63 39.59,30.00 37.97,24.62 C34.89,14.45 28.44,9.67 18.18,6.90 C14.35,5.88 9.05,6.86 9.21,10.81 C9.21,13.87 9.64,15.93 7.71,18.29 C5.35,21.18 7.77,24.46 10.24,27.26 C11.04,28.19 11.91,29.08 12.82,29.90 "/>
</g>
<g stroke-width="0.21" style="stroke-linejoin:round;stroke-linecap:round">
<path d="M19.52,31.44 C22.50,33.54 26.00,34.95 30.49,34.39 C34.44,33.91 37.39,30.19 36.36,26.34 C33.94,17.37 28.16,11.04 18.87,11.04 C15.52,11.04 10.92,12.60 11.97,15.76 C12.37,16.85 12.37,18.24 11.22,18.82 C9.23,19.89 8.77,22.47 10.70,23.81 C11.89,24.80 13.04,25.83 14.15,26.84 "/>
</g>
<g stroke-width="0.21" style="stroke-linejoin:round;stroke-linecap:round">
<path d="M20.04,29.32 C23.50,31.48 28.45,32.51 33.13,27.26 C35.46,24.65 32.05,21.88 29.91,19.09 C26.46,14.62 22.17,12.80 16.69,14.15 C14.59,14.67 11.76,16.93 13.35,18.52 C17.72,21.93 13.74,24.67 17.02,27.13 C17.99,27.90 19.02,28.68 20.08,29.36 "/>
</g>
<g stroke-width="0.21" style="stroke-linejoin:round;stroke-linecap:round">
<path d="M15.65,17.83 C20.94,22.00 23.76,27.32 30.37,26.00 C33.19,25.44 28.69,21.71 26.35,20.02 C22.96,17.59 20.86,16.10 16.69,16.10 C15.83,16.10 14.78,17.26 15.65,17.83 C20.94,22.00 23.76,27.32 30.37,26.00 "/>
</g>
<g stroke-width="0.21" style="stroke-linejoin:round;stroke-linecap:round">
<path d="M43.36,15.67 C46.14,18.62 46.55,21.40 50.22,23.12 C52.32,24.12 55.96,21.32 54.68,19.37 C51.85,15.10 49.17,12.48 44.06,12.21 C42.64,12.14 42.38,14.59 43.36,15.67 C46.14,18.62 46.55,21.40 50.22,23.12 "/>
</g>
<g stroke-width="0.21" style="stroke-linejoin:round;stroke-linecap:round">
<path d="M46.53,16.43 C48.74,18.43 50.33,22.62 52.63,20.71 C53.83,19.72 52.22,18.16 51.04,17.14 C49.54,15.87 48.49,15.09 46.53,15.20 C46.03,15.23 46.12,16.08 46.53,16.43 C48.74,18.43 50.33,22.62 52.63,20.71 "/>
</g>
<g stroke-width="0.21" style="stroke-linejoin:round;stroke-linecap:round">
<path d="M10.78,10.45 C11.09,10.89 11.92,10.86 12.63,10.35 C13.34,9.86 13.65,9.09 13.34,8.65 C13.04,8.21 12.20,8.25 11.50,8.74 C10.79,9.24 10.48,10.01 10.78,10.45 C11.09,10.89 11.92,10.86 12.63,10.35 "/>
</g>
<g stroke-width="0.21" style="stroke-linejoin:round;stroke-linecap:round">
<path d="M14.86,27.47 C16.48,28.94 18.02,30.33 19.52,31.44 "/>
</g>
<g stroke-width="0.21" style="stroke-linejoin:round;stroke-linecap:round">
<path d="M13.48,30.46 C15.15,31.89 16.89,33.10 18.44,33.96 "/>
</g>
<g stroke-width="0.21" style="stroke-linejoin:round;stroke-linecap:round">
<path d="M25.04,22.25 C24.91,22.44 25.03,22.76 25.33,22.98 C25.62,23.19 26.49,23.59 26.63,23.40 C26.76,23.22 26.10,22.54 25.81,22.32 C25.51,22.10 25.17,22.08 25.04,22.25 C24.91,22.44 25.03,22.76 25.33,22.98 "/>
</g>
</g>
</g>
<g id="102.0 St\366dkurva 4">
<g stroke="rgb(209,92,0)">
<g stroke-width="0.35" style="stroke-linejoin:round;stroke-linecap:round">
<path d="M7.02,7.94 C6.11,10.21 5.86,11.49 5.87,13.92 C5.87,17.36 4.07,16.85 4.36,20.27 C4.71,24.63 5.96,28.03 8.38,30.61 "/>
</g>
<g stroke-width="0.35" style="stroke-linejoin:round;stroke-linecap:round">
<path d="M20.83,19.90 C23.58,21.39 24.25,24.16 27.38,24.16 C28.12,24.16 27.25,22.92 26.69,22.43 C23.82,19.97 22.42,17.48 18.64,17.48 C17.32,17.48 19.59,19.34 20.83,19.90 C23.58,21.39 24.25,24.16 27.38,24.16 "/>
</g>
<g stroke-width="0.35" style="stroke-linejoin:round;stroke-linecap:round">
<path d="M33.61,39.95 C35.20,39.54 36.59,38.59 37.82,36.93 C40.17,33.63 45.23,35.32 47.97,32.32 C50.49,29.56 42.11,29.68 40.96,26.11 C37.49,15.38 32.49,9.82 22.32,4.95 C16.69,2.26 9.99,2.47 7.02,7.94 "/>
</g>
<g stroke-width="0.35" style="stroke-linejoin:round;stroke-linecap:round">
<path d="M11.10,32.85 C12.16,33.55 13.28,34.09 14.63,34.62 C15.41,34.94 17.44,35.77 18.20,36.08 C22.72,37.96 26.56,39.58 29.78,40.05 "/>
</g>
<g stroke-width="0.35" style="stroke-linejoin:round;stroke-linecap:round">
<path d="M9.14,31.36 C9.51,31.69 9.87,31.98 10.29,32.28 "/>
</g>
</g>
</g>
<g id="103.0 Hj\344lpkurva 4">
<g stroke="rgb(209,92,0)">
<g stroke-width="0.21" style="stroke-linejoin:bevel">
<path d="M40.61,31.36 C40.60,31.50 40.65,31.64 40.74,31.76 C40.84,31.88 40.98,31.99 41.15,32.09 C41.17,32.11 41.19,32.12 41.21,32.13 "/>
</g>
<g stroke-width="0.21" style="stroke-linejoin:bevel">
<path d="M41.51,32.26 C41.59,32.29 41.68,32.31 41.77,32.33 C42.00,32.39 42.26,32.42 42.54,32.43 C42.81,32.45 43.06,32.43 43.30,32.39 C43.39,32.38 43.48,32.36 43.57,32.34 "/>
</g>
<g stroke-width="0.21" style="stroke-linejoin:bevel">
<path d="M43.88,32.24 C43.90,32.23 43.92,32.22 43.94,32.21 C44.12,32.13 44.27,32.03 44.37,31.91 C44.48,31.80 44.54,31.67 44.55,31.53 C44.55,31.40 44.50,31.27 44.41,31.15 C44.32,31.03 44.18,30.91 44.00,30.82 C43.97,30.81 43.95,30.80 43.93,30.79 "/>
</g>
<g stroke-width="0.21" style="stroke-linejoin:bevel">
<path d="M43.63,30.66 C43.55,30.63 43.47,30.61 43.38,30.58 C43.15,30.52 42.90,30.48 42.63,30.47 C42.35,30.46 42.09,30.48 41.85,30.52 C41.75,30.54 41.66,30.56 41.58,30.58 "/>
</g>
<g stroke-width="0.21" style="stroke-linejoin:bevel">
<path d="M41.27,30.68 C41.25,30.69 41.23,30.70 41.21,30.70 C41.03,30.78 40.88,30.88 40.78,30.99 C40.67,31.10 40.61,31.23 40.61,31.36 C40.60,31.50 40.65,31.64 40.74,31.76 "/>
</g>
<g stroke-width="0.21" style="stroke-linejoin:bevel">
<path d="M51.22,24.70 C51.15,24.95 51.09,25.17 51.03,25.35 "/>
</g>
<g stroke-width="0.21" style="stroke-linejoin:bevel">
<path d="M50.91,25.65 C50.87,25.77 50.82,25.88 50.78,25.97 C50.63,26.27 50.49,26.47 50.38,26.64 C50.33,26.70 50.30,26.75 50.26,26.81 "/>
</g>
<g stroke-width="0.21" style="stroke-linejoin:bevel">
<path d="M50.12,27.09 C50.12,27.10 50.12,27.11 50.12,27.11 C50.08,27.29 50.08,27.50 50.14,27.82 C50.19,28.04 50.41,28.20 50.73,28.29 C50.76,28.31 50.80,28.32 50.85,28.33 "/>
</g>
<g stroke-width="0.21" style="stroke-linejoin:bevel">
<path d="M51.18,28.38 C51.40,28.40 51.64,28.40 51.88,28.37 C52.24,28.34 52.63,28.26 52.95,28.12 "/>
</g>
<g stroke-width="0.21" style="stroke-linejoin:bevel">
<path d="M53.24,27.98 C53.50,27.82 53.71,27.61 53.81,27.36 C53.88,27.16 53.81,27.03 53.67,26.92 C53.56,26.85 53.40,26.79 53.24,26.73 "/>
</g>
<g stroke-width="0.21" style="stroke-linejoin:bevel">
<path d="M52.94,26.63 C52.77,26.57 52.60,26.51 52.47,26.42 C52.29,26.31 52.17,26.16 52.18,25.94 C52.18,25.77 52.19,25.58 52.20,25.39 C52.20,25.34 52.20,25.29 52.20,25.24 "/>
</g>
<g stroke-width="0.21" style="stroke-linejoin:bevel">
<path d="M52.20,24.89 C52.20,24.88 52.20,24.87 52.20,24.85 C52.19,24.69 52.15,24.54 52.08,24.44 C52.00,24.34 51.89,24.27 51.72,24.27 C51.65,24.27 51.60,24.28 51.55,24.30 C51.49,24.32 51.45,24.35 51.41,24.38 C51.37,24.42 51.33,24.46 51.30,24.52 C51.27,24.57 51.24,24.63 51.22,24.70 C51.15,24.95 51.09,25.17 51.03,25.35 "/>
</g>
<g stroke-width="0.21" style="stroke-linejoin:bevel">
<path d="M29.35,36.15 C29.64,36.20 29.90,36.25 30.15,36.30 C30.23,36.32 30.32,36.33 30.41,36.35 "/>
</g>
<g stroke-width="0.21" style="stroke-linejoin:bevel">
<path d="M30.73,36.39 C30.77,36.40 30.81,36.40 30.85,36.40 C31.07,36.42 31.30,36.43 31.54,36.42 C31.79,36.40 32.05,36.37 32.35,36.30 C32.49,36.27 32.58,36.18 32.65,36.05 C32.67,36.01 32.69,35.95 32.71,35.90 "/>
</g>
<g stroke-width="0.21" style="stroke-linejoin:bevel">
<path d="M32.79,35.58 C32.79,35.58 32.79,35.58 32.80,35.57 C32.83,35.39 32.87,35.20 32.92,35.04 C32.97,34.87 33.04,34.72 33.16,34.62 C33.33,34.47 33.52,34.45 33.72,34.49 C33.81,34.51 33.90,34.54 34.00,34.58 "/>
</g>
<g stroke-width="0.21" style="stroke-linejoin:bevel">
<path d="M34.30,34.71 C34.30,34.71 34.30,34.71 34.30,34.71 C34.49,34.81 34.68,34.89 34.86,34.91 C35.03,34.93 35.20,34.87 35.34,34.67 C35.45,34.51 35.57,34.34 35.67,34.18 "/>
</g>
<g stroke-width="0.21" style="stroke-linejoin:bevel">
<path d="M35.84,33.91 C35.84,33.90 35.85,33.89 35.86,33.88 C36.02,33.63 36.17,33.38 36.32,33.12 C36.44,32.90 36.56,32.67 36.68,32.41 "/>
</g>
<g stroke-width="0.21" style="stroke-linejoin:bevel">
<path d="M36.82,32.13 C36.93,31.88 37.04,31.62 37.17,31.32 "/>
</g>
</g>
</g>
<g id="104.0 Lutningsstreck 4">
<g stroke="rgb(209,92,0)">
<g stroke-width="0.21" style="stroke-linejoin:bevel">
<path d="M43.01,12.85 L43.58,13.34 "/>
</g>
<g stroke-width="0.21" style="stroke-linejoin:bevel">
<path d="M53.80,22.24 L53.23,21.75 "/>
</g>
<g stroke-width="0.21" style="stroke-linejoin:bevel">
<path d="M52.51,20.83 L51.93,20.35 "/>
</g>
<g stroke-width="0.21" style="stroke-linejoin:bevel">
<path d="M46.29,15.37 L46.87,15.85 "/>
</g>
<g stroke-width="0.21" style="stroke-linejoin:bevel">
<path d="M50.13,27.83 L50.79,27.48 "/>
</g>
<g stroke-width="0.21" style="stroke-linejoin:bevel">
<path d="M53.75,27.27 L53.00,27.37 "/>
</g>
<g stroke-width="0.21" style="stroke-linejoin:bevel">
<path d="M51.69,24.28 L51.65,25.03 "/>
</g>
<g stroke-width="0.21" style="stroke-linejoin:bevel">
<path d="M33.26,34.52 L33.55,35.22 "/>
</g>
</g>
</g>
<g id="105.0 H\366jdangivelse p\345 kurva 4">
<g stroke="rgb(209,92,0)">
<g fill="rgb(209,92,0)">
<path d="M30.41,39.50 C30.39,39.52 30.36,39.54 30.33,39.56 C30.30,39.58 30.27,39.60 30.24,39.62 C30.21,39.64 30.18,39.65 30.15,39.67 C30.12,39.69 30.09,39.70 30.07,39.71 L30.07,39.50  C30.14,39.46 30.20,39.43 30.27,39.38 C30.33,39.34 30.38,39.31 30.42,39.27 L30.61,39.27  30.61,40.73  30.41,40.73  "/>
</g>
<g fill="rgb(209,92,0)">
<path d="M31.19,40.01 C31.19,40.09 31.20,40.17 31.21,40.24 C31.21,40.31 31.23,40.37 31.25,40.42 C31.27,40.47 31.30,40.51 31.34,40.54 C31.38,40.57 31.42,40.59 31.48,40.59 C31.54,40.59 31.59,40.57 31.63,40.53 C31.66,40.50 31.69,40.45 31.71,40.40 C31.73,40.34 31.75,40.28 31.75,40.21 C31.76,40.14 31.77,40.07 31.77,40.00 C31.77,39.92 31.76,39.84 31.75,39.76 C31.74,39.69 31.73,39.63 31.71,39.58 C31.69,39.52 31.66,39.48 31.62,39.45 C31.58,39.42 31.54,39.41 31.48,39.41 C31.42,39.41 31.37,39.43 31.33,39.47 C31.29,39.51 31.26,39.55 31.24,39.61 C31.22,39.67 31.21,39.73 31.20,39.80 C31.19,39.88 31.19,39.94 31.19,40.01 L31.19,40.01 M30.99,40.02 C30.99,39.98 30.99,39.94 30.99,39.89 C31.00,39.83 31.00,39.78 31.01,39.72 C31.02,39.66 31.04,39.61 31.06,39.55 C31.08,39.49 31.11,39.44 31.15,39.39 C31.18,39.35 31.23,39.31 31.28,39.28 C31.34,39.25 31.40,39.24 31.48,39.24 C31.55,39.24 31.62,39.25 31.67,39.28 C31.72,39.30 31.76,39.33 31.80,39.37 C31.84,39.41 31.87,39.46 31.89,39.51 C31.91,39.56 31.93,39.62 31.94,39.67 C31.95,39.73 31.96,39.78 31.96,39.84 C31.97,39.89 31.97,39.94 31.97,39.99 C31.97,40.16 31.95,40.30 31.92,40.40 C31.88,40.51 31.83,40.59 31.77,40.65 C31.74,40.68 31.72,40.70 31.69,40.71 C31.66,40.73 31.63,40.74 31.61,40.74 C31.58,40.75 31.56,40.76 31.53,40.76 C31.51,40.76 31.49,40.76 31.48,40.76 C31.43,40.76 31.38,40.76 31.34,40.74 C31.30,40.73 31.26,40.71 31.23,40.69 C31.20,40.67 31.17,40.64 31.14,40.61 C31.12,40.58 31.10,40.55 31.08,40.52 C31.06,40.47 31.04,40.41 31.02,40.33 C31.00,40.26 30.99,40.15 30.99,40.02 "/>
</g>
<g fill="rgb(209,92,0)">
<path d="M32.45,40.01 C32.45,40.09 32.46,40.17 32.47,40.24 C32.48,40.31 32.49,40.37 32.51,40.42 C32.54,40.47 32.56,40.51 32.60,40.54 C32.64,40.57 32.68,40.59 32.74,40.59 C32.80,40.59 32.85,40.57 32.89,40.53 C32.93,40.50 32.95,40.45 32.98,40.40 C33.00,40.34 33.01,40.28 33.02,40.21 C33.02,40.14 33.03,40.07 33.03,40.00 C33.03,39.92 33.02,39.84 33.01,39.76 C33.01,39.69 32.99,39.63 32.97,39.58 C32.95,39.52 32.92,39.48 32.88,39.45 C32.84,39.42 32.80,39.41 32.74,39.41 C32.68,39.41 32.63,39.43 32.59,39.47 C32.55,39.51 32.52,39.55 32.50,39.61 C32.48,39.67 32.47,39.73 32.46,39.80 C32.46,39.88 32.45,39.94 32.45,40.01 L32.45,40.01 M32.25,40.02 C32.25,39.98 32.25,39.94 32.25,39.89 C32.26,39.83 32.26,39.78 32.27,39.72 C32.29,39.66 32.30,39.61 32.32,39.55 C32.34,39.49 32.37,39.44 32.41,39.39 C32.44,39.35 32.49,39.31 32.54,39.28 C32.60,39.25 32.66,39.24 32.74,39.24 C32.81,39.24 32.88,39.25 32.93,39.28 C32.98,39.30 33.03,39.33 33.06,39.37 C33.10,39.41 33.13,39.46 33.15,39.51 C33.17,39.56 33.19,39.62 33.20,39.67 C33.21,39.73 33.22,39.78 33.23,39.84 C33.23,39.89 33.23,39.94 33.23,39.99 C33.23,40.16 33.21,40.30 33.18,40.40 C33.15,40.51 33.10,40.59 33.03,40.65 C33.00,40.68 32.98,40.70 32.95,40.71 C32.92,40.73 32.90,40.74 32.87,40.74 C32.84,40.75 32.82,40.76 32.80,40.76 C32.77,40.76 32.75,40.76 32.74,40.76 C32.69,40.76 32.64,40.76 32.60,40.74 C32.56,40.73 32.52,40.71 32.49,40.69 C32.46,40.67 32.43,40.64 32.41,40.61 C32.38,40.58 32.36,40.55 32.35,40.52 C32.32,40.47 32.30,40.41 32.28,40.33 C32.26,40.26 32.25,40.15 32.25,40.02 "/>
</g>
</g>
</g>
<g id="106.2 Sk\344rning _gr\366vre_ 4">
<g stroke="rgb(209,92,0)">
<g stroke-width="0.37" style="stroke-linejoin:bevel">
<path d="M11.97,15.76 C12.37,16.85 12.37,18.24 11.22,18.82 C11.12,18.88 11.02,18.93 10.93,18.99 "/>
</g>
<g stroke-width="0.21" style="stroke-linejoin:bevel">
<path d="M12.08,16.13 L11.35,16.32 "/>
</g>
<g stroke-width="0.21" style="stroke-linejoin:bevel">
<path d="M12.20,16.89 L11.45,16.93 "/>
</g>
<g stroke-width="0.21" style="stroke-linejoin:bevel">
<path d="M12.13,17.67 L11.40,17.49 "/>
</g>
<g stroke-width="0.21" style="stroke-linejoin:bevel">
<path d="M11.82,18.32 L11.21,17.88 "/>
</g>
<g stroke-width="0.21" style="stroke-linejoin:bevel">
<path d="M11.25,18.81 L10.89,18.15 "/>
</g>
</g>
</g>
<g id="108.1 Liten jordvall 4">
<g stroke="rgb(209,92,0)">
<g stroke-width="0.21" style="stroke-linejoin:bevel">
<path d="M23.26,29.15 C25.11,30.15 26.65,30.17 28.52,29.20 "/>
</g>
<circle cx="24.50" cy="29.70" r="0.30" fill="rgb(209,92,0)"/>
<circle cx="27.26" cy="29.73" r="0.30" fill="rgb(209,92,0)"/>
</g>
</g>
<g id="109.0 Erosionsf\345ra 4">
<g stroke="rgb(209,92,0)">
<g fill="rgb(209,92,0)">
<path d="M21.04,28.52 20.80,28.83  20.57,29.15  20.41,28.83  20.68,28.61  "/>
</g>
<g stroke-width="0.37" style="stroke-linejoin:round;stroke-linecap:round">
<path d="M20.49,28.99 C20.44,29.06 20.39,29.13 20.35,29.20 C20.19,29.48 20.09,29.79 19.99,30.12 C19.89,30.44 19.80,30.78 19.67,31.09 C19.54,31.41 19.37,31.70 19.12,31.94 C18.71,32.32 18.46,32.73 18.28,33.14 C18.11,33.56 18.01,33.98 17.91,34.41 C17.81,34.84 17.72,35.28 17.56,35.70 C17.46,35.95 17.34,36.18 17.20,36.41 "/>
</g>
<g fill="rgb(209,92,0)">
<path d="M17.37,36.48 17.10,36.73  16.78,36.94  16.88,36.65  17.03,36.34  "/>
</g>
<g fill="rgb(209,92,0)">
<path d="M18.46,32.96 18.50,32.60  18.54,32.22  18.86,32.40  18.70,32.72  "/>
</g>
<g stroke-width="0.37" style="stroke-linejoin:round;stroke-linecap:round">
<path d="M18.70,32.31 C18.75,32.09 18.77,31.86 18.77,31.62 C18.78,31.13 18.70,30.61 18.63,30.10 C18.56,29.58 18.50,29.08 18.52,28.61 C18.52,28.40 18.54,28.18 18.60,27.99 "/>
</g>
<g fill="rgb(209,92,0)">
<path d="M18.42,27.99 18.60,27.65  18.90,27.36  18.84,27.65  18.78,27.99  "/>
</g>
</g>
</g>
<g id="110.0 Liten f\345ra 4">
<g stroke="rgb(209,92,0)">
<circle cx="15.55" cy="26.40" r="0.18" fill="rgb(209,92,0)"/>
<circle cx="15.06" cy="26.69" r="0.18" fill="rgb(209,92,0)"/>
<circle cx="14.63" cy="27.08" r="0.18" fill="rgb(209,92,0)"/>
<circle cx="14.31" cy="27.53" r="0.18" fill="rgb(209,92,0)"/>
<circle cx="14.07" cy="28.02" r="0.18" fill="rgb(209,92,0)"/>
<circle cx="13.87" cy="28.54" r="0.18" fill="rgb(209,92,0)"/>
<circle cx="13.69" cy="29.07" r="0.18" fill="rgb(209,92,0)"/>
<circle cx="13.49" cy="29.58" r="0.18" fill="rgb(209,92,0)"/>
<circle cx="13.25" cy="30.09" r="0.18" fill="rgb(209,92,0)"/>
<circle cx="12.95" cy="30.56" r="0.18" fill="rgb(209,92,0)"/>
<circle cx="12.57" cy="30.98" r="0.18" fill="rgb(209,92,0)"/>
<circle cx="12.16" cy="31.37" r="0.18" fill="rgb(209,92,0)"/>
<circle cx="11.71" cy="31.75" r="0.18" fill="rgb(209,92,0)"/>
<circle cx="11.28" cy="32.09" r="0.18" fill="rgb(209,92,0)"/>
<circle cx="10.83" cy="32.43" r="0.18" fill="rgb(209,92,0)"/>
<circle cx="10.40" cy="32.81" r="0.18" fill="rgb(209,92,0)"/>
<circle cx="9.99" cy="33.21" r="0.18" fill="rgb(209,92,0)"/>
<circle cx="11.90" cy="30.94" r="0.18" fill="rgb(209,92,0)"/>
<circle cx="11.29" cy="30.92" r="0.18" fill="rgb(209,92,0)"/>
<circle cx="10.70" cy="30.86" r="0.18" fill="rgb(209,92,0)"/>
<circle cx="10.10" cy="30.82" r="0.18" fill="rgb(209,92,0)"/>
<circle cx="9.51" cy="30.83" r="0.18" fill="rgb(209,92,0)"/>
<circle cx="8.93" cy="30.92" r="0.18" fill="rgb(209,92,0)"/>
<circle cx="8.40" cy="31.09" r="0.18" fill="rgb(209,92,0)"/>
<circle cx="7.89" cy="31.30" r="0.18" fill="rgb(209,92,0)"/>
</g>
</g>
<g id="112.0 Punkth\366jd 4">
<g stroke="rgb(209,92,0)">
<circle cx="12.68" cy="22.12" r="0.37" fill="rgb(209,92,0)"/>
</g>
</g>
<g id="113.0 Avl\345ng punkth\366jd 4">
<g stroke="rgb(209,92,0)">
<g fill="rgb(209,92,0)">
<path d="M46.34,31.43 C46.36,31.60 46.64,31.71 46.95,31.69 C47.29,31.67 47.55,31.53 47.53,31.36 C47.53,31.20 47.25,31.07 46.92,31.10 C46.60,31.12 46.34,31.27 46.34,31.43 "/>
</g>
</g>
</g>
<g id="115.0 Liten naturlig grop 4">
<g stroke="rgb(209,92,0)">
<g stroke-width="0.25" style="stroke-linejoin:bevel">
<path d="M47.83,24.81 C47.83,24.84 47.83,24.86 47.83,24.88 C47.86,25.12 48.05,25.28 48.30,25.28 C48.53,25.28 48.74,25.14 48.77,24.90 C48.77,24.88 48.77,24.84 48.77,24.81 "/>
</g>
</g>
</g>
<g id="116.0 Liten gr\344vd grop 4">
<g stroke="rgb(209,92,0)">
<g fill="rgb(209,92,0)">
<path d="M45.57,22.54 46.12,23.79  46.67,22.54  46.40,22.54  46.12,23.16  45.84,22.54  "/>
</g>
</g>
</g>
<g id="117.2 Sm\345kuperad terr\344ng _0.30_ 4">
<g stroke="rgb(209,92,0)">
<circle cx="41.47" cy="12.66" r="0.15" fill="rgb(209,92,0)"/>
<circle cx="41.47" cy="13.47" r="0.15" fill="rgb(209,92,0)"/>
<circle cx="40.83" cy="13.71" r="0.15" fill="rgb(209,92,0)"/>
<circle cx="40.83" cy="13.18" r="0.15" fill="rgb(209,92,0)"/>
<circle cx="40.25" cy="13.65" r="0.15" fill="rgb(209,92,0)"/>
<circle cx="40.20" cy="12.84" r="0.15" fill="rgb(209,92,0)"/>
<circle cx="40.95" cy="12.55" r="0.15" fill="rgb(209,92,0)"/>
<circle cx="40.31" cy="12.14" r="0.15" fill="rgb(209,92,0)"/>
<circle cx="39.62" cy="12.49" r="0.15" fill="rgb(209,92,0)"/>
<circle cx="39.62" cy="13.24" r="0.15" fill="rgb(209,92,0)"/>
<circle cx="39.10" cy="12.95" r="0.15" fill="rgb(209,92,0)"/>
<circle cx="39.85" cy="14.05" r="0.15" fill="rgb(209,92,0)"/>
<circle cx="40.54" cy="14.23" r="0.15" fill="rgb(209,92,0)"/>
<circle cx="41.36" cy="14.23" r="0.15" fill="rgb(209,92,0)"/>
<circle cx="42.05" cy="13.13" r="0.15" fill="rgb(209,92,0)"/>
<circle cx="41.24" cy="12.14" r="0.15" fill="rgb(209,92,0)"/>
<circle cx="40.78" cy="11.79" r="0.15" fill="rgb(209,92,0)"/>
<circle cx="41.88" cy="11.79" r="0.15" fill="rgb(209,92,0)"/>
<circle cx="41.88" cy="12.43" r="0.15" fill="rgb(209,92,0)"/>
<circle cx="42.28" cy="12.03" r="0.15" fill="rgb(209,92,0)"/>
</g>
</g>
</g>
<g opacity="1.00">
</g>
<g opacity="1.00">
</g>
<g opacity="1.00">
<g id="113.0 Avl\345ng punkth\366jd 0">
<g stroke="rgb(0,0,0)">
</g>
</g>
</g>
<g opacity="1.00">
</g>
<g opacity="1.00">
</g>
<g opacity="1.00">
</g>
</g>
</g>
</g>
</g>
</svg>